<svg width="24" height="24" viewBox="0 0 24 24" fill="none" xmlns="http://www.w3.org/2000/svg">
<path d="M15.3788 5.46455C15.2382 5.60515 15.0474 5.68414 14.8485 5.68414C14.6497 5.68414 14.4589 5.60515 14.3183 5.46455C14.1127 5.25818 13.8683 5.0946 13.5991 4.98325C13.3299 4.8719 13.0413 4.81498 12.75 4.8158C12.135 4.8158 11.5853 5.06255 11.1818 5.46455C11.1122 5.53418 11.0295 5.58942 10.9385 5.6271C10.8475 5.66479 10.75 5.68418 10.6515 5.68418C10.4527 5.68418 10.2619 5.60518 10.1213 5.46455C10.0517 5.39491 9.99643 5.31225 9.95875 5.22127C9.92106 5.13029 9.90166 5.03277 9.90166 4.9343C9.90166 4.73541 9.98067 4.54468 10.1213 4.40405C10.4664 4.05872 10.8762 3.78485 11.3273 3.59811C11.7784 3.41137 12.2618 3.31544 12.75 3.3158C13.2383 3.31544 13.7217 3.41137 14.1728 3.59811C14.6239 3.78485 15.0337 4.05872 15.3788 4.40405C15.5194 4.54469 15.5984 4.73542 15.5984 4.9343C15.5984 5.13317 15.5194 5.3239 15.3788 5.46455ZM6.67055 4.7483C6.00801 5.13533 5.40879 5.62174 4.8938 6.19055L4.89305 6.1913C4.37631 6.76221 3.95057 7.40929 3.6308 8.1098C3.30253 8.82865 3.09112 9.59529 3.00455 10.3808C2.99372 10.4787 3.00227 10.5778 3.02973 10.6724C3.05718 10.767 3.103 10.8552 3.16457 10.9321C3.22613 11.009 3.30224 11.073 3.38854 11.1205C3.47484 11.168 3.56965 11.198 3.66755 11.2088C3.76545 11.2196 3.86453 11.2111 3.95912 11.1836C4.05372 11.1562 4.14198 11.1103 4.21886 11.0488C4.29575 10.9872 4.35976 10.9111 4.40723 10.8248C4.45471 10.7385 4.48472 10.6437 4.49555 10.5458C4.56591 9.91875 4.73473 9.30673 4.9958 8.7323C5.50969 7.60678 6.35896 6.66766 7.4273 6.04355C7.51235 5.99386 7.58678 5.9279 7.64633 5.84945C7.70589 5.771 7.74941 5.68158 7.77442 5.58631C7.79942 5.49104 7.80541 5.39177 7.79205 5.29418C7.77869 5.1966 7.74624 5.10259 7.69655 5.01755C7.64686 4.9325 7.58091 4.85807 7.50246 4.79851C7.424 4.73896 7.33459 4.69543 7.23931 4.67043C7.0469 4.61994 6.84231 4.64795 6.67055 4.7483ZM18.0001 13.125C18.0001 12.9261 18.0791 12.7354 18.2197 12.5947C18.3604 12.4541 18.5511 12.375 18.7501 12.375C18.949 12.375 19.1397 12.4541 19.2804 12.5947C19.421 12.7354 19.5 12.9261 19.5 13.125C19.499 13.8017 19.2363 14.4517 18.7669 14.939C18.2974 15.4264 17.6577 15.7132 16.9816 15.7395C17.1488 16.0838 17.2501 16.4663 17.2501 16.875C17.2501 17.074 17.171 17.2647 17.0304 17.4054C16.8897 17.546 16.699 17.625 16.5001 17.625C16.3011 17.625 16.1104 17.546 15.9697 17.4054C15.8291 17.2647 15.7501 17.074 15.7501 16.875C15.7501 16.5767 15.6315 16.2905 15.4205 16.0796C15.2096 15.8686 14.9234 15.75 14.625 15.75H9.98855C9.78964 15.75 9.59887 15.671 9.45822 15.5304C9.31757 15.3897 9.23855 15.199 9.23855 15C9.23855 14.8011 9.31757 14.6104 9.45822 14.4697C9.59887 14.3291 9.78964 14.25 9.98855 14.25H11.6251C11.9232 14.2495 12.209 14.1307 12.4199 13.9199C12.6307 13.709 12.7495 13.4232 12.75 13.125C12.75 12.9261 12.8291 12.7354 12.9697 12.5947C13.1104 12.4541 13.3011 12.375 13.5 12.375C13.699 12.375 13.8897 12.4541 14.0304 12.5947C14.171 12.7354 14.25 12.9261 14.25 13.125C14.25 13.5293 14.151 13.908 13.9875 14.25H16.8751C17.1732 14.2495 17.459 14.1307 17.6699 13.9199C17.8807 13.709 17.9995 13.4232 18.0001 13.125Z" fill="#05162C"/>
<path d="M24 12.5332C24 12.0622 23.9662 11.6062 23.9145 11.1637C23.2342 5.30025 18.261 0.7515 12.2167 0.75H11.2928C5.055 0.75075 0.00075 5.805 0 12.0427C0 12.6281 0.11529 13.2077 0.339288 13.7485C0.563286 14.2892 0.891604 14.7806 1.3055 15.1945C2.14139 16.0304 3.27511 16.5 4.45725 16.5H5.388C5.64024 17.567 6.24513 18.5177 7.10479 19.1982C7.96444 19.8788 9.02858 20.2494 10.125 20.25H15.453L17.79 22.587C17.8687 22.6656 17.9688 22.7191 18.0779 22.7407C18.1869 22.7624 18.3 22.7512 18.4027 22.7087C18.5054 22.6662 18.5932 22.5942 18.655 22.5017C18.7169 22.4093 18.7499 22.3007 18.75 22.1895V20.1877C19.9028 20.044 20.989 19.5683 21.8763 18.8185C22.7637 18.0687 23.4139 17.0771 23.748 15.9645C23.8552 15.606 23.9167 15.228 23.9557 14.8432L23.958 14.8372C23.979 14.7682 24 14.7 24 14.625C23.9995 14.579 23.9975 14.5335 23.994 14.4885L23.9888 14.4022C23.9893 14.3782 23.991 14.355 23.994 14.3325C23.998 14.305 24 14.2775 24 14.25V12.5332ZM22.311 15.5362C22.0341 16.4646 21.465 17.2788 20.6883 17.8578C19.9116 18.4368 18.9688 18.7497 18 18.75H10.125C9.28342 18.7496 8.47237 18.4347 7.85091 17.8673C7.22945 17.2998 6.84243 16.5206 6.76575 15.6825L6.76125 15.6345C6.78632 14.6604 7.19153 13.7348 7.89021 13.0556C8.58889 12.3764 9.52559 11.9975 10.5 12C10.6989 12 10.8897 11.921 11.0303 11.7803C11.171 11.6397 11.25 11.4489 11.25 11.25C11.25 11.0511 11.171 10.8603 11.0303 10.7197C10.8897 10.579 10.6989 10.5 10.5 10.5C9.61926 10.5 8.75266 10.7215 7.98 11.1442C7.83253 10.8129 7.62619 10.511 7.371 10.2532C7.23037 10.1126 7.03963 10.0336 6.84075 10.0336C6.64187 10.0336 6.45113 10.1126 6.3105 10.2532C6.16987 10.3939 6.09086 10.5846 6.09086 10.7835C6.09086 10.9824 6.16987 11.1731 6.3105 11.3137C6.5235 11.5275 6.66825 11.8012 6.723 12.108C5.96082 12.9003 5.46658 13.9118 5.31 15H4.45725C4.0687 15.0006 3.68387 14.9244 3.32489 14.7757C2.9659 14.6271 2.63986 14.4089 2.3655 14.1337C2.09059 13.8594 1.87261 13.5335 1.72408 13.1746C1.57554 12.8158 1.49939 12.4311 1.5 12.0427C1.5 9.336 2.595 6.8925 4.368 5.118C5.27598 4.20678 6.3553 3.48423 7.54378 2.99201C8.73225 2.49978 10.0064 2.2476 11.2928 2.25H12.2167C17.2342 2.2485 21.4012 5.85 22.305 10.6042C21.478 9.79769 20.4227 9.26532 19.2825 9.0795C19.6597 8.388 19.875 7.59375 19.875 6.75C19.875 6.55109 19.796 6.36032 19.6553 6.21967C19.5147 6.07902 19.3239 6 19.125 6C18.9261 6 18.7353 6.07902 18.5947 6.21967C18.454 6.36032 18.375 6.55109 18.375 6.75C18.3758 7.19333 18.2889 7.63245 18.1193 8.04204C17.9496 8.45163 17.7006 8.82359 17.3865 9.1365C17.0736 9.45056 16.7016 9.6996 16.292 9.86925C15.8824 10.0389 15.4433 10.1258 15 10.125C14.8011 10.125 14.6103 10.204 14.4697 10.3447C14.329 10.4853 14.25 10.6761 14.25 10.875C14.25 11.0739 14.329 11.2647 14.4697 11.4053C14.6103 11.546 14.8011 11.625 15 11.625C16.1595 11.6257 17.281 11.2112 18.1613 10.4565L18.1733 10.4602C18.2384 10.4827 18.3062 10.4961 18.375 10.5C19.5165 10.5 20.5432 10.9605 21.2917 11.7082C22.0102 12.4273 22.4366 13.3871 22.4888 14.4022C22.4782 14.7863 22.4184 15.1674 22.311 15.5362Z" fill="#05162C"/>
</svg>
